<svg width="100%" height="100%" viewBox="0 0 349 229" fill="none" xmlns="http://www.w3.org/2000/svg">
<g filter="url(#filter0_d_1_2)">
<mask id="path-1-outside-1_1_2" maskUnits="userSpaceOnUse" x="4" y="0" width="341" height="221" fill="black">
<rect fill="white" x="4" width="341" height="221"/>
<path d="M154.554 1.81818V44.6449H58.2472V220H5.51279V1.81818H154.554ZM201.257 220L289.255 45.7102V44.3253H186.343V1.81818H343.8V44.6449L255.483 220H201.257Z"/>
</mask>
<path d="M154.554 1.81818V44.6449H58.2472V220H5.51279V1.81818H154.554ZM201.257 220L289.255 45.7102V44.3253H186.343V1.81818H343.8V44.6449L255.483 220H201.257Z" fill="white" fill-opacity="0.6" shape-rendering="crispEdges"/>
<path d="M154.554 1.81818H155.554V0.818175H154.554V1.81818ZM154.554 44.6449V45.6449H155.554V44.6449H154.554ZM58.2472 44.6449V43.6449H57.2472V44.6449H58.2472ZM58.2472 220V221H59.2472V220H58.2472ZM5.51279 220H4.51279V221H5.51279V220ZM5.51279 1.81818V0.818175H4.51279V1.81818H5.51279ZM153.554 1.81818V44.6449H155.554V1.81818H153.554ZM154.554 43.6449H58.2472V45.6449H154.554V43.6449ZM57.2472 44.6449V220H59.2472V44.6449H57.2472ZM58.2472 219H5.51279V221H58.2472V219ZM6.51279 220V1.81818H4.51279V220H6.51279ZM5.51279 2.81818H154.554V0.818175H5.51279V2.81818ZM201.257 220L200.365 219.549L199.632 221H201.257V220ZM289.255 45.7102L290.147 46.1609L290.255 45.9483V45.7102H289.255ZM289.255 44.3253H290.255V43.3253H289.255V44.3253ZM186.343 44.3253H185.343V45.3253H186.343V44.3253ZM186.343 1.81818V0.818175H185.343V1.81818H186.343ZM343.8 1.81818H344.8V0.818175H343.8V1.81818ZM343.8 44.6449L344.693 45.0947L344.8 44.8825V44.6449H343.8ZM255.483 220V221H256.099L256.376 220.45L255.483 220ZM202.15 220.451L290.147 46.1609L288.362 45.2595L200.365 219.549L202.15 220.451ZM290.255 45.7102V44.3253H288.255V45.7102H290.255ZM289.255 43.3253H186.343V45.3253H289.255V43.3253ZM187.343 44.3253V1.81818H185.343V44.3253H187.343ZM186.343 2.81818H343.8V0.818175H186.343V2.81818ZM342.8 1.81818V44.6449H344.8V1.81818H342.8ZM342.907 44.1951L254.59 219.55L256.376 220.45L344.693 45.0947L342.907 44.1951ZM255.483 219H201.257V221H255.483V219Z" fill="white" mask="url(#path-1-outside-1_1_2)"/>
</g>
<defs>
<filter id="filter0_d_1_2" x="0.512787" y="0.818176" width="348.287" height="228.182" filterUnits="userSpaceOnUse" color-interpolation-filters="sRGB">
<feFlood flood-opacity="0" result="BackgroundImageFix"/>
<feColorMatrix in="SourceAlpha" type="matrix" values="0 0 0 0 0 0 0 0 0 0 0 0 0 0 0 0 0 0 127 0" result="hardAlpha"/>
<feOffset dy="4"/>
<feGaussianBlur stdDeviation="2"/>
<feComposite in2="hardAlpha" operator="out"/>
<feColorMatrix type="matrix" values="0 0 0 0 0 0 0 0 0 0 0 0 0 0 0 0 0 0 0.25 0"/>
<feBlend mode="normal" in2="BackgroundImageFix" result="effect1_dropShadow_1_2"/>
<feBlend mode="normal" in="SourceGraphic" in2="effect1_dropShadow_1_2" result="shape"/>
</filter>
</defs>
</svg>
