<svg width="512" height="364" viewBox="0 0 512 364" fill="none" xmlns="http://www.w3.org/2000/svg">
<path d="M53.8743 179.279C53.8743 179.279 79.9453 77.3954 184.246 34.7118C184.246 34.7118 225.329 -24.5523 353.332 11.7936C353.332 11.7936 391.262 37.0805 397.584 51.2923C397.584 51.2923 453.679 60.7829 453.679 125.568C453.679 125.568 464.738 142.165 461.585 183.248L470.275 270.952L428.392 303.345L426.023 287.548C426.023 287.548 385.724 226.7 383.356 207.751C383.356 207.751 372.297 199.06 372.297 220.394L383.356 253.571L75.9923 229.757L53.8743 179.279Z" fill="#E14B4B"/>
<path d="M399.744 132.642C390.734 92.7275 377.562 53.7569 360.293 16.5789C368.36 22.3564 381.723 32.4072 390.254 41.4176C396.047 71.4738 399.168 102.01 399.744 132.642ZM283.393 45.2106C286.898 45.0186 289.938 46.443 292.595 48.7156C289.57 47.4832 286.433 46.3469 283.393 45.2106ZM383.244 207.639C382.107 206.871 372.441 200.341 372.345 220.154C368.072 214.473 364.471 208.023 360.389 202.229C349.01 185.921 332.51 173.886 316.394 162.122C285.569 139.652 253.817 116.798 217.215 105.995C235.235 105.051 252.776 111.501 269.549 118.03C302.742 130.93 336.959 145.814 358.869 173.79C358.773 155.016 348.722 137.94 338.96 121.919C326.156 100.874 313.353 79.812 300.549 58.7663C298.373 55.1653 295.716 51.2763 292.579 48.7156C306.807 54.125 320.555 60.7509 331.262 71.3777C345.489 85.5096 352.595 105.035 358.853 124.096C367.897 151.669 376.032 179.531 383.244 207.639Z" fill="#D03F3E"/>
<path d="M0.339693 285.196C0.339693 272.857 0.227662 287.02 0.115632 281.851C-0.33249 295.727 -0.0444113 219.274 11.7668 211.208C20.2171 202.709 27.9472 176.942 34.717 186.817C40.4946 182 44.5277 189.106 47.7766 180.607C51.0255 178.911 53.4901 171.245 56.1148 179.407C58.7395 177.519 61.5403 184.929 65.4614 182.656C69.3824 188.514 74.4078 184.929 81.5297 189.778C81.5297 195.331 84.1705 183.104 88.1555 189.01C92.1566 194.099 97.5021 190.066 102.944 186.785C108.385 181.088 113.923 177.871 118.26 183.248C121.525 187.073 126.07 188.033 131.079 182.432C136.073 177.791 141.53 179.439 146.555 184.657C151.597 191.666 156.222 192.195 159.599 187.665C162.976 192.627 165.072 186.049 165.072 189.17C165.072 189.394 166.353 193.939 168.657 189.026C170.962 187.761 174.259 191.602 178.308 188.802C182.357 194.643 187.142 187.761 192.376 188.818C197.625 183.504 203.323 179.215 209.212 189.378C215.102 184.961 221.168 186.401 227.153 190.802C233.139 188.898 239.028 190.306 244.566 193.411C250.087 192.147 255.257 201.221 259.77 197.492C264.299 193.075 268.172 189.186 271.133 203.382C271.133 200.437 272.526 207.447 275.022 204.31C277.519 205.878 281.104 202.79 285.489 206.919C289.874 206.583 295.044 208.919 300.725 210.936C306.391 204.854 312.552 214.969 318.906 216.121C325.26 219.37 331.806 227.196 338.223 222.187C344.657 215.929 350.963 225.244 356.868 228.877C362.774 240.192 368.264 231.437 373.033 235.935C377.802 238.287 381.867 236.719 384.892 243.088C384.892 243.232 387.469 251.507 387.917 251.907C388.749 253.187 389.661 262.918 390.542 262.214C394.111 271.832 396.191 314.98 390.238 331.977C390.238 331.929 389.533 329 388.093 334.473C386.653 335.466 384.476 332.265 381.563 339.771C378.65 343.852 374.969 341.499 370.536 344.524C366.103 351.998 360.886 348.717 354.9 345.404C348.914 342.059 342.128 339.451 334.542 339.082C334.542 331.512 334.094 336.746 333.23 338.634C332.366 342.603 331.069 334.841 329.373 337.386C327.677 327.719 325.58 338.458 323.115 335.466C320.635 332.825 317.786 335.578 314.569 333.033C311.352 340.955 307.783 329.848 303.878 330.216C299.973 324.519 295.716 320.005 291.155 327.143C286.593 327.927 281.712 318.149 276.543 323.974C271.373 318.773 265.9 329.224 260.154 320.838C254.409 323.158 248.391 316.212 242.133 317.877C235.86 315.476 229.346 319.205 222.592 315.236C215.838 315.716 208.86 317.013 201.674 313.043C194.488 312.195 187.078 307.202 179.492 311.459C171.906 308.322 164.128 310.595 156.19 310.611C148.252 307.81 140.138 309.602 131.879 310.627C117.459 306.994 104.8 309.731 93.709 310.835C82.618 312.083 73.0954 309.843 64.9172 309.747C56.739 307.778 49.9051 306.946 44.1916 307.794C38.478 314.596 33.8848 304.849 30.2038 305.361C26.5228 304.305 23.738 298.143 21.6415 302.817C19.5449 302.609 18.1205 296.799 17.1603 300.528C16.2 299.408 15.7039 301.408 15.4478 298.88C15.1917 302.16 15.1757 306.706 15.1757 298.239C15.1757 308.29 12.359 300.544 9.11007 295.503C5.82918 296.175 2.11617 301.456 0.339693 285.196ZM505.613 285.452C519.729 307.778 509.118 341.851 486.792 355.967C464.466 370.083 434.922 363.409 420.806 341.083C406.69 318.757 413.364 289.213 435.69 275.097C458 260.981 491.497 263.11 505.613 285.452Z" fill="#DAE5EF"/>
<path d="M503.852 337.498C499.691 345.02 493.77 351.422 486.728 355.903C464.482 370.147 434.874 363.425 420.79 341.019C406.706 318.773 413.268 289.165 435.674 275.081C436.794 274.441 437.754 273.801 438.875 273.32C431.193 287.884 431.353 306.129 440.795 321.013C454.239 342.459 482.087 349.501 503.852 337.498ZM441.067 274.297C441.259 273.657 441.163 273 440.955 272.376C440.875 272.408 440.811 272.456 440.731 272.488L441.067 274.297Z" fill="#CBD6E0"/>
</svg>
